<?xml version="1.0" encoding="iso-8859-1"?>
<!-- Generator: Adobe Illustrator 16.0.3, SVG Export Plug-In . SVG Version: 6.00 Build 0)  -->
<!DOCTYPE svg PUBLIC "-//W3C//DTD SVG 1.1//EN" "http://www.w3.org/Graphics/SVG/1.1/DTD/svg11.dtd">
<svg version="1.1" xmlns="http://www.w3.org/2000/svg" xmlns:xlink="http://www.w3.org/1999/xlink" x="0px" y="0px" width="600px"
	 height="310px" viewBox="0 0 600 310" style="enable-background:new 0 0 600 310;" xml:space="preserve">
<g id="Layer_2">
	<g>
		<path style="fill:#252525;" d="M82.52,276.832c0,4.163,2.078,6.24,6.24,6.24c4.155,0,9.758-4.395,16.8-13.199
			c7.035-8.798,11.835-13.035,14.4-12.721c1.92,1.92-0.165,6.083-6.24,12.48c-0.645,0.645-1.763,2.324-3.36,5.04
			c-1.605,2.722-2.962,4.882-4.08,6.479c-1.125,1.605-2.64,3.683-4.56,6.24c-1.92,2.558-3.683,4.635-5.28,6.24
			c-1.605,1.598-3.36,3.195-5.28,4.8c-3.84,3.194-7.2,4.8-10.08,4.8s-6.803-0.563-11.76-1.68c-4.965-1.125-7.522-2.325-7.68-3.6
			c-0.165-1.283-0.24-2.4-0.24-3.36c0-16.636,13.598-50.716,40.8-102.24c-4.163,0-7.44-0.157-9.84-0.479
			c-2.4-0.315-3.84-1.598-4.32-3.84c-0.48-2.235,0.157-3.518,1.92-3.84c1.755-0.316,3.6-0.316,5.52,0
			c1.92,0.322,5.28,0.479,10.08,0.479c16.32-29.438,26.078-47.438,29.28-54c3.195-6.555,4.8-11.28,4.8-14.16s-0.165-5.115-0.48-6.72
			c1.275-8.955,9.037-20.715,23.28-35.28c14.235-14.558,27.12-21.84,38.64-21.84c3.839,0,9.037,1.44,15.599,4.32
			c6.557,2.88,10.32,6.165,11.281,9.84c0.959,3.683,1.199,5.76,0.719,6.24c-0.479,0.48-1.521,0.405-3.119-0.24
			c-1.605-0.637-2.564-0.96-2.881-0.96c-23.039,0-55.844,37.605-98.399,112.8c34.875-1.598,70.635-8.558,107.28-20.88
			c36.637-12.315,64.717-28.56,84.241-48.72c11.197-10.875,16.799-22.395,16.799-34.56c0-35.835-36.645-53.76-109.92-53.76
			c-41.924,0-81.922,6.405-119.999,19.2c-19.845,7.042-36.72,16.485-50.64,28.32c-13.92,11.843-22.163,25.283-24.72,40.32
			c-0.322,1.605-0.48,3.683-0.48,6.24c0,2.565,1.035,5.685,3.12,9.36c2.078,3.682,4.56,6.48,7.44,8.4s6.96,4.163,12.24,6.72
			c5.28,2.565,8.797,4.485,10.56,5.76c1.755,1.282,2.16,2.64,1.2,4.08c-0.96,1.44-3.045,1.846-6.24,1.2
			c-9.923-1.597-19.2-6.555-27.84-14.88c-8.64-8.317-12.96-17.28-12.96-26.88c0-2.88,0.315-5.76,0.96-8.64
			c-0.645-4.155-0.96-6.72-0.96-7.68c4.478-24,27.998-46.875,70.56-68.64c33.6-15.675,73.275-23.52,119.041-23.52
			c28.154,0,55.994,3.84,83.52,11.52c18.555,6.405,32.641,15.525,42.241,27.36c9.6,11.842,14.4,23.842,14.4,36
			c0,18.563-7.365,34.965-22.08,49.2c-14.723,14.242-31.202,25.2-49.442,32.879c-43.199,18.563-94.079,28.485-152.639,29.76
			c-12.48,23.041-21.84,41.761-28.08,56.16C85.64,263.393,82.52,272.678,82.52,276.832z"/>
	</g>
</g>
<g id="Layer_3">
	<g>
		<path style="fill:#252525;" d="M248.012,303.299c-0.835-0.205-2.5-0.938-5-2.188s-4.17-2.188-5-2.813
			c-9.585-8.955-18.022-17.549-25.313-25.781c-7.295-8.228-13.281-16.875-17.969-25.938s-7.969-18.906-9.844-29.531
			s-2.188-22.813-0.938-36.563c0.415-1.04,1.04-1.875,1.875-2.5c0.83-0.625,1.768-0.728,2.813-0.313
			c1.455,11.875,3.438,22.71,5.938,32.5c2.5,9.795,5.884,18.96,10.156,27.5c4.268,8.545,9.531,16.719,15.781,24.531
			s13.75,15.781,22.5,23.906c2.5,2.295,5.259,3.804,8.281,4.531c3.018,0.732,6.094,0.835,9.219,0.313
			c3.125-0.518,6.143-1.406,9.063-2.656c2.915-1.25,5.518-2.813,7.813-4.688c7.705-6.04,14.111-13.594,19.219-22.656
			c5.103-9.063,8.906-18.906,11.406-29.531s3.799-21.719,3.906-33.281c0.104-11.563-0.781-22.813-2.656-33.75
			s-4.795-21.299-8.75-31.094c-3.96-9.79-8.647-18.33-14.063-25.625c-8.545-1.25-17.085-1.143-25.625,0.313
			c-8.545,1.46-17.188,3.232-25.938,5.313c-8.75,2.085-17.451,3.906-26.094,5.469c-8.647,1.563-17.139,1.929-25.469,1.094
			c-4.17-5-5.156-8.799-2.969-11.406c2.188-2.603,5.674-4.478,10.469-5.625c4.79-1.143,9.893-1.821,15.313-2.031
			c5.415-0.205,9.165-0.415,11.25-0.625c1.455-0.205,4.58-0.625,9.375-1.25c4.79-0.625,9.893-1.299,15.313-2.031
			c5.415-0.728,10.674-1.509,15.781-2.344c5.103-0.83,8.906-1.455,11.406-1.875c1.04-0.205,3.125-0.571,6.25-1.094
			c3.125-0.518,5.103-0.986,5.938-1.406c3.955-0.415,10-1.143,18.125-2.188c8.125-1.04,17.291-2.188,27.5-3.438
			c10.205-1.25,20.938-2.603,32.188-4.063c11.25-1.455,21.979-2.813,32.188-4.063c10.205-1.25,19.322-2.393,27.344-3.438
			c8.018-1.04,14.01-1.768,17.969-2.188c0.205,0,1.51-0.469,3.906-1.406c2.393-0.938,5.049-1.875,7.969-2.813
			c2.916-0.938,5.625-1.768,8.125-2.5c2.5-0.728,3.955-0.986,4.375-0.781c4.58,2.295,7.5,4.688,8.75,7.188s1.51,4.897,0.781,7.188
			c-0.732,2.295-2.139,4.429-4.219,6.406c-2.084,1.982-4.219,3.491-6.406,4.531c-2.188,1.045-4.17,1.563-5.938,1.563
			c-1.771,0-2.656-0.728-2.656-2.188h-19.688l-113.125,14.688l-10,2.188c2.705,4.17,5.156,10.313,7.344,18.438
			s3.906,17.5,5.156,28.125s1.875,22.031,1.875,34.219s-0.834,24.17-2.5,35.938c-1.67,11.772-4.271,22.969-7.813,33.594
			c-3.545,10.625-8.232,19.795-14.062,27.5c-5.835,7.71-12.92,13.491-21.25,17.344C269.052,303.875,259.262,304.969,248.012,303.299
			z"/>
	</g>
</g>
<g id="Layer_4">
	<g>
		<path style="fill:#252525;" d="M589.891,266.579c0,10.928-2.975,20.243-8.917,27.956c-5.95,7.712-16.147,11.568-30.607,11.568
			c-9.964,0-20.003-1.763-30.125-5.303c-10.122-3.531-20.003-8.193-29.643-13.979c-9.641-5.783-18.881-12.531-27.715-20.243
			c-8.842-7.712-16.795-15.74-23.859-24.101c-0.647,2.893-1.611,7.072-2.892,12.533c-1.288,5.467-2.893,10.928-4.82,16.387
			c-1.928,5.469-4.097,10.205-6.507,14.22c-2.41,4.021-4.903,6.024-7.472,6.024c-4.18,0-8.759-2.086-13.736-6.266
			c-4.986-4.172-9.964-9.715-14.942-16.629c-4.985-6.906-9.806-14.859-14.46-23.859c-4.662-8.992-8.759-18.316-12.291-27.955
			c-9.324-26.669-15.266-47.636-17.834-62.901c-2.576-15.258-3.855-23.535-3.855-24.823c0-1.928,0.316-3.69,0.963-5.302
			c0.641-1.604,2.087-2.41,4.339-2.41c3.532,0,6.183,1.047,7.952,3.133c1.764,2.094,2.968,4.745,3.615,7.953
			c1.604,6.748,3.773,14.543,6.508,23.377c2.727,8.842,5.783,17.917,9.158,27.233c3.373,9.323,6.905,18.398,10.604,27.232
			c3.69,8.842,7.306,16.795,10.845,23.859c3.532,7.072,6.906,12.773,10.122,17.111c3.208,4.338,5.942,6.506,8.194,6.506
			c2.244,0,3.931-1.845,5.061-5.543c1.122-3.689,2.004-7.952,2.651-12.772c0.64-4.819,1.039-9.474,1.205-13.978
			c0.158-4.496,0.241-7.547,0.241-9.158c-1.612-2.893-2.817-6.266-3.615-10.122c-0.806-3.856-1.205-7.064-1.205-9.64
			c0-4.173,1.039-7.713,3.133-10.604c2.086-2.892,4.097-4.338,6.025-4.338c1.28,0,2.169,0.165,2.65,0.481
			c0.482,0.324,1.205,0.648,2.169,0.965c0.964,0,1.763-0.076,2.41-0.241c0.641-0.158,1.446-0.241,2.41-0.241
			c0.641,0,1.363,0.241,2.169,0.723c0.799,0.482,1.688,1.854,2.651,4.098c4.172,10.928,10.122,22.172,17.834,33.74
			c7.712,11.567,16.388,22.014,26.027,31.33c9.641,9.323,20.079,17.035,31.33,23.135c11.244,6.108,22.654,9.158,34.223,9.158
			c4.172,0,8.028-1.363,11.567-4.097c3.532-2.726,5.303-6.341,5.303-10.845c0-13.496-1.371-27.309-4.098-41.452
			c-2.733-14.136-6.432-28.597-11.086-43.38c-4.662-14.776-10.047-29.801-16.146-45.067c-6.108-15.258-12.374-30.923-18.799-46.995
			c-5.467-13.496-10.687-24.175-15.665-32.053c-4.985-7.87-9.323-14.136-13.014-18.798c-3.697-4.654-6.673-8.51-8.917-11.568
			c-2.252-3.05-3.374-6.823-3.374-11.327c0-5.46,2.004-9.474,6.025-12.05c4.014-2.568,8.27-3.856,12.772-3.856
			c2.568,0,5.461,2.493,8.677,7.471c3.208,4.986,6.582,11.41,10.121,19.28c3.532,7.877,7.064,16.629,10.604,26.269
			c3.532,9.64,7.064,19.28,10.604,28.92c5.137,14.144,10.921,29.327,17.353,45.549c6.424,16.23,12.449,32.459,18.075,48.682
			c5.618,16.229,10.362,31.895,14.219,46.994C587.963,241.681,589.891,255.012,589.891,266.579z"/>
	</g>
</g>
</svg>
